<?xml version="1.0" standalone="no"?>
<!DOCTYPE svg PUBLIC "-//W3C//DTD SVG 20010904//EN"
 "http://www.w3.org/TR/2001/REC-SVG-20010904/DTD/svg10.dtd">
<svg version="1.0" xmlns="http://www.w3.org/2000/svg"
 width="2027.000000pt" height="2027.000000pt" viewBox="0 0 2027.000000 2027.000000"
 preserveAspectRatio="xMidYMid meet">
<metadata>
Created by potrace 1.11, written by Peter Selinger 2001-2013
</metadata>
<g transform="translate(0.000000,2027.000000) scale(0.100000,-0.100000)"
fill="#000000" stroke="none">
<path d="M10526 19953 c-1 -1 -85 -5 -186 -8 -102 -3 -203 -7 -225 -9 -22 -2
-92 -7 -154 -11 -63 -4 -125 -9 -140 -10 -14 -2 -64 -7 -110 -10 -46 -4 -93
-8 -103 -10 -11 -2 -47 -7 -81 -10 -35 -3 -71 -7 -82 -9 -11 -2 -51 -7 -90
-10 -38 -4 -77 -9 -85 -11 -8 -2 -35 -7 -60 -10 -122 -16 -472 -77 -580 -100
-14 -3 -36 -7 -50 -10 -112 -21 -449 -103 -635 -155 -849 -237 -1693 -601
-2458 -1059 -70 -42 -135 -81 -145 -86 -108 -65 -416 -271 -546 -366 -45 -32
-92 -67 -106 -76 -91 -66 -440 -342 -470 -373 -3 -3 -34 -30 -70 -60 -297
-250 -700 -649 -970 -960 -46 -52 -95 -108 -109 -125 -96 -109 -346 -429 -466
-595 -84 -117 -315 -459 -315 -466 0 -3 -19 -35 -43 -72 -67 -104 -81 -125
-93 -147 -6 -11 -35 -60 -64 -110 -146 -251 -349 -641 -449 -865 -151 -335
-258 -603 -352 -884 -88 -260 -186 -599 -224 -775 -3 -12 -7 -29 -9 -38 -35
-144 -90 -413 -101 -488 -4 -22 -12 -76 -20 -120 -8 -44 -21 -132 -30 -195 -9
-63 -18 -126 -21 -140 -2 -14 -6 -52 -9 -85 -3 -33 -7 -71 -10 -85 -2 -14 -7
-57 -10 -95 -4 -39 -8 -90 -10 -115 -2 -25 -7 -81 -10 -125 -3 -44 -7 -111
-10 -150 -11 -156 -16 -365 -16 -640 1 -289 3 -356 16 -555 4 -58 8 -127 10
-155 4 -76 16 -207 20 -235 2 -14 7 -59 11 -100 3 -41 7 -82 9 -90 2 -9 6 -43
10 -75 4 -33 8 -71 10 -85 2 -14 7 -47 11 -75 3 -27 8 -59 10 -70 2 -11 7 -40
10 -65 3 -25 8 -53 10 -63 3 -10 7 -30 9 -45 4 -32 11 -67 25 -142 6 -30 13
-64 14 -75 2 -11 6 -33 9 -50 4 -16 9 -41 11 -55 2 -14 18 -83 35 -154 17 -70
33 -138 36 -150 40 -191 239 -840 299 -981 7 -16 46 -113 86 -214 184 -466
465 -1024 738 -1468 27 -43 64 -103 82 -133 19 -30 36 -57 40 -60 3 -3 11 -17
19 -32 8 -16 18 -28 23 -28 4 0 8 -5 8 -10 0 -12 81 -134 92 -138 5 -2 8 -8 8
-12 0 -11 181 -263 294 -410 321 -417 718 -853 1091 -1195 60 -55 116 -107
125 -115 13 -12 234 -201 318 -272 13 -10 69 -55 125 -99 56 -44 111 -88 122
-97 64 -53 387 -282 559 -396 278 -184 453 -289 756 -453 85 -46 162 -88 170
-93 26 -15 302 -152 380 -188 41 -19 113 -52 158 -73 46 -21 86 -39 88 -39 2
0 27 -11 56 -24 229 -103 601 -244 878 -334 116 -38 350 -108 388 -117 10 -3
60 -16 112 -30 52 -14 106 -28 120 -31 14 -3 34 -8 45 -11 11 -4 25 -8 30 -9
6 -1 71 -16 145 -33 150 -35 213 -49 250 -55 14 -2 36 -7 50 -10 25 -6 67 -14
105 -20 11 -2 74 -13 140 -24 66 -11 140 -23 165 -27 25 -3 70 -10 100 -15 30
-5 80 -12 110 -15 30 -3 66 -8 80 -10 14 -2 48 -7 75 -10 28 -3 68 -7 90 -9
89 -10 153 -17 205 -21 30 -2 91 -7 135 -10 415 -34 1087 -38 1500 -10 157 10
334 24 385 30 19 2 60 7 90 10 30 3 71 8 90 10 19 3 55 7 80 10 25 3 63 8 85
10 22 3 58 8 80 11 22 3 65 9 95 14 30 5 73 12 95 15 23 3 52 7 65 10 14 3 68
12 120 21 52 9 167 32 255 50 88 19 171 37 185 40 14 3 59 14 101 24 42 11 85
21 95 23 51 10 388 106 529 150 288 92 662 231 880 328 279 124 590 277 815
401 111 62 142 79 256 146 245 143 542 334 749 481 55 39 111 79 125 88 86 60
409 311 545 424 131 110 238 204 390 344 182 168 539 528 593 596 13 18 29 1
-336 375 -370 379 -750 769 -827 849 -461 478 -568 583 -579 572 -7 -7 -45
-50 -85 -97 -254 -297 -647 -681 -941 -918 -36 -29 -78 -64 -94 -78 -48 -44
-364 -276 -496 -366 -140 -95 -414 -268 -505 -318 -33 -18 -73 -41 -90 -51
-106 -63 -594 -299 -619 -299 -6 0 -16 -4 -22 -9 -15 -14 -429 -170 -494 -186
-8 -2 -76 -22 -150 -45 -116 -36 -454 -123 -530 -137 -13 -2 -56 -11 -95 -19
-38 -8 -85 -17 -104 -20 -18 -3 -43 -8 -55 -10 -31 -7 -263 -42 -321 -49 -27
-3 -84 -10 -125 -15 -41 -5 -106 -12 -145 -15 -38 -3 -92 -7 -120 -10 -238
-22 -708 -32 -975 -20 -124 6 -273 15 -310 20 -19 2 -66 7 -105 10 -38 4 -81
8 -95 10 -14 2 -56 7 -95 11 -38 4 -72 8 -75 9 -3 1 -30 5 -60 9 -30 5 -64 10
-75 12 -11 2 -38 6 -60 9 -22 3 -74 12 -115 20 -41 8 -86 17 -100 19 -52 8
-188 38 -260 56 -41 10 -86 21 -100 24 -14 2 -68 16 -120 31 -52 14 -117 32
-145 40 -77 21 -365 115 -415 135 -25 10 -83 33 -130 50 -598 223 -1296 609
-1865 1033 -261 195 -521 422 -790 692 -250 251 -444 469 -615 695 -35 47 -68
90 -73 95 -42 52 -297 420 -297 430 0 3 -5 11 -10 18 -6 7 -44 66 -84 132 -63
105 -101 171 -197 340 -31 57 -192 378 -224 450 -166 371 -283 691 -379 1035
-41 150 -106 423 -121 510 -3 19 -14 80 -25 135 -10 55 -24 138 -30 185 -6 47
-13 96 -15 110 -2 14 -7 50 -10 80 -4 30 -8 66 -10 80 -2 14 -6 63 -10 110 -4
47 -8 108 -11 135 -22 256 -21 823 1 1045 2 19 6 73 10 120 3 47 7 92 10 100
2 8 6 44 10 80 3 36 7 75 9 85 2 11 7 43 10 70 4 28 8 61 11 75 2 14 7 43 10
65 3 22 12 76 20 120 8 44 17 95 20 113 23 136 141 611 159 641 3 4 7 18 9 32
7 38 102 316 156 457 311 810 758 1550 1355 2241 97 113 507 530 596 606 19
17 71 62 116 100 121 105 183 156 233 194 25 19 48 38 51 41 12 16 287 216
425 308 83 56 155 105 160 110 6 4 17 11 25 15 8 4 27 15 42 25 69 45 292 175
436 254 78 42 373 192 382 193 3 1 41 18 85 39 44 21 145 65 225 98 80 32 154
63 165 68 50 23 272 101 395 140 74 23 146 45 160 50 100 35 540 142 680 165
19 3 53 10 75 15 22 4 60 11 85 14 25 3 56 8 70 11 14 3 43 8 65 10 50 7 112
15 145 20 23 3 64 8 165 19 328 36 757 48 1148 32 97 -4 185 -9 195 -10 9 -2
58 -7 107 -11 50 -3 104 -8 120 -10 17 -3 53 -7 80 -10 84 -9 233 -29 295 -40
14 -2 41 -7 60 -9 72 -11 171 -30 280 -53 41 -8 94 -19 117 -24 57 -11 251
-58 288 -70 17 -5 93 -27 170 -50 369 -108 707 -238 1055 -406 173 -84 391
-201 525 -282 33 -20 69 -41 80 -48 11 -7 27 -15 35 -19 64 -31 482 -315 645
-438 77 -58 335 -264 345 -275 3 -3 23 -21 45 -40 211 -179 690 -657 783 -781
2 -3 64 58 139 135 74 77 254 262 398 410 145 149 312 320 371 382 60 61 215
220 344 353 425 437 470 484 470 493 0 9 -388 399 -500 503 -56 51 -122 110
-265 236 -16 14 -64 54 -105 88 -41 34 -84 69 -95 78 -11 10 -42 35 -70 57
-27 22 -52 43 -55 46 -3 3 -93 71 -200 151 -408 304 -785 548 -1250 806 -30
16 -73 40 -95 52 -22 13 -143 75 -270 139 -194 99 -307 152 -590 276 -247 109
-673 258 -1070 374 -80 23 -333 88 -367 95 -13 2 -52 11 -88 20 -58 14 -308
66 -386 81 -112 20 -253 43 -309 50 -25 3 -113 16 -280 39 -16 3 -61 8 -100
11 -38 4 -77 8 -85 10 -8 3 -51 7 -95 10 -44 4 -96 8 -115 10 -42 4 -182 15
-265 20 -173 12 -881 26 -889 18z"/>
<path d="M7450 15478 c-213 -34 -417 -144 -640 -347 -27 -25 -40 -31 -60 -26
-189 49 -441 44 -645 -13 -112 -32 -293 -148 -382 -246 -187 -206 -324 -543
-368 -911 -4 -27 -8 -61 -11 -75 -32 -188 -20 -783 21 -1045 3 -16 7 -48 10
-70 5 -39 9 -67 20 -130 56 -336 139 -661 243 -950 160 -443 300 -681 545
-926 217 -217 479 -379 774 -478 99 -33 101 -33 208 -56 39 -8 80 -16 92 -19
12 -3 53 -8 90 -11 37 -4 70 -9 73 -12 7 -7 6 -1393 -2 -1391 -5 3 -108 97
-252 231 -22 22 -86 81 -141 132 -55 51 -121 113 -146 137 -52 48 -258 240
-298 277 -30 28 -259 241 -306 286 -18 17 -78 73 -135 125 -56 52 -119 111
-139 130 -21 19 -71 67 -113 105 -41 39 -126 117 -188 175 -62 58 -129 121
-150 140 -21 19 -91 85 -155 145 -139 130 -161 146 -216 150 -138 10 -219
-132 -146 -258 13 -23 39 -69 57 -102 18 -33 42 -76 53 -95 20 -35 92 -165
150 -270 49 -89 79 -143 100 -180 11 -19 33 -60 50 -90 16 -30 38 -68 47 -85
10 -16 29 -50 43 -75 35 -65 84 -153 135 -245 25 -44 55 -98 67 -120 12 -22
45 -83 74 -135 30 -52 67 -120 84 -150 54 -97 73 -132 166 -299 50 -90 91
-167 91 -172 0 -5 4 -9 9 -9 5 0 13 -9 16 -21 4 -11 24 -50 44 -87 21 -37 51
-89 66 -117 99 -178 225 -405 242 -435 11 -19 35 -62 53 -95 27 -50 214 -386
308 -555 14 -25 58 -106 100 -180 41 -74 86 -155 100 -180 51 -92 226 -406
247 -445 12 -22 37 -67 56 -100 l34 -60 0 -485 c1 -538 -1 -522 67 -574 58
-44 162 -38 209 13 37 39 49 79 49 161 0 74 4 89 40 166 22 47 40 87 40 88 0
2 25 56 55 119 30 64 74 160 99 214 24 54 69 151 100 217 31 65 56 119 56 121
0 2 21 47 47 102 26 54 47 100 48 103 1 3 16 37 34 75 52 110 87 186 111 240
12 28 40 88 62 135 22 47 51 110 65 140 14 30 43 92 64 138 22 46 39 85 39 86
0 2 23 53 52 112 28 60 52 111 53 114 1 3 7 16 13 30 l11 25 2 -30 c1 -16 3
-39 4 -50 1 -11 5 -47 9 -80 6 -62 32 -216 40 -244 3 -9 7 -27 10 -41 9 -55
84 -293 111 -355 8 -16 25 -57 39 -90 101 -244 289 -525 495 -740 37 -38 105
-104 152 -145 46 -41 86 -77 89 -80 3 -3 43 -34 90 -68 47 -34 90 -65 95 -70
29 -24 244 -146 326 -185 190 -90 423 -168 606 -203 48 -9 97 -18 107 -20 20
-4 66 -9 171 -20 140 -15 426 -9 573 11 26 3 63 8 82 11 224 29 582 152 813
280 103 56 289 174 307 194 3 3 25 21 50 40 157 119 384 350 481 490 13 19 27
37 30 40 16 13 141 214 187 300 50 95 114 241 147 335 9 28 21 59 26 70 4 11
15 47 24 80 9 33 17 65 19 70 2 6 7 29 11 53 7 38 11 43 29 38 12 -3 69 -16
129 -28 l107 -23 0 -810 c0 -893 -1 -881 62 -973 67 -100 162 -164 269 -181
30 -5 117 -8 194 -6 120 2 148 5 195 25 108 46 175 109 224 210 l31 65 3 295
c3 261 2 299 -13 326 -17 31 -51 54 -81 54 -12 0 -14 18 -12 113 2 61 6 111
11 109 4 -1 21 5 37 13 59 30 60 40 60 414 0 187 4 342 8 345 5 3 24 8 43 11
28 5 116 25 179 40 198 49 478 165 681 282 95 55 267 167 279 183 3 3 20 17
39 30 19 13 75 60 125 103 619 541 967 1302 969 2117 1 158 -8 279 -29 418 -3
20 -7 48 -9 62 -14 96 -59 279 -103 415 -103 318 -310 682 -537 945 -44 51
-262 269 -315 315 -183 158 -467 335 -690 430 -47 20 -94 40 -105 45 -18 8
-201 69 -270 90 -39 11 -104 28 -135 34 -14 3 -50 10 -80 15 -30 6 -66 13 -79
16 -13 2 -49 7 -80 11 -31 3 -65 8 -76 10 -22 5 -247 17 -310 17 -95 0 -290
-15 -410 -33 -304 -45 -589 -135 -860 -273 -135 -68 -173 -96 -182 -132 -10
-43 -10 -47 -2 -72 7 -18 0 -27 -44 -57 -29 -19 -63 -44 -77 -55 -30 -25 -39
-25 -76 -6 -65 33 -105 17 -229 -96 -355 -323 -627 -735 -779 -1179 -48 -143
-100 -352 -112 -453 -4 -29 -9 -57 -13 -63 -4 -7 -31 -7 -91 2 -205 32 -536
36 -710 10 -14 -2 -45 -7 -70 -11 -79 -11 -104 -16 -166 -30 -34 -8 -73 -16
-86 -19 -14 -2 -61 -16 -106 -30 -288 -91 -537 -214 -770 -382 -12 -9 -24 -15
-26 -13 -2 2 9 31 25 64 41 87 127 273 151 325 11 25 40 87 64 139 24 51 44
95 44 96 0 2 21 48 47 102 26 54 48 100 48 103 1 3 22 49 48 104 26 54 47 100
47 101 0 2 20 45 44 97 24 51 69 149 101 218 31 69 77 167 101 219 24 51 44
95 44 96 0 2 20 45 44 97 25 51 45 98 46 103 1 6 6 15 12 22 5 6 11 32 12 57
6 80 -42 146 -122 171 -40 12 -105 -4 -138 -33 -16 -15 -104 -130 -195 -257
-142 -197 -227 -316 -473 -657 -23 -31 -48 -66 -56 -78 -8 -12 -40 -56 -71
-98 -92 -127 -321 -444 -351 -487 -15 -22 -92 -130 -172 -240 -79 -110 -155
-215 -168 -233 -13 -18 -28 -39 -33 -45 -9 -10 -56 -75 -156 -216 -14 -20 -66
-92 -115 -161 -50 -69 -151 -208 -224 -310 -73 -102 -224 -311 -335 -465 -111
-154 -222 -309 -248 -344 l-47 -63 0 960 0 959 63 7 c109 12 140 17 252 46
292 73 563 212 805 411 71 58 220 215 286 300 191 250 352 596 464 1001 17 62
35 124 40 138 7 22 44 173 54 226 56 277 68 345 82 449 3 28 7 57 9 65 2 8 6
47 10 85 4 39 8 81 11 94 18 121 26 652 11 801 -51 506 -178 844 -404 1076
-137 141 -329 239 -508 260 -27 4 -53 8 -57 11 -9 5 -236 5 -263 -1 -11 -2
-42 -7 -70 -10 -76 -11 -108 -16 -125 -21 -8 -3 -39 18 -70 48 -30 29 -73 66
-95 82 -22 16 -42 32 -45 35 -14 15 -123 82 -185 113 -64 32 -195 78 -262 92
-48 11 -245 12 -303 3z m4020 -6869 c184 -33 374 -137 495 -271 122 -135 195
-289 230 -483 13 -74 3 -271 -17 -307 -5 -10 -7 -18 -4 -18 8 0 -39 -131 -64
-180 -93 -185 -272 -352 -452 -423 -122 -49 -184 -61 -323 -62 -183 0 -246 12
-390 79 -267 123 -463 394 -500 689 -44 355 142 711 461 885 51 27 162 69 206
78 18 4 49 10 68 14 52 10 227 10 290 -1z"/>
<path d="M15496 14152 c-2 -4 -7 -23 -10 -43 -3 -20 -8 -42 -10 -50 -3 -8 -7
-30 -10 -50 l-5 -36 87 -23 c105 -28 144 -31 148 -10 4 22 11 49 24 103 7 26
11 50 8 52 -10 10 -228 63 -232 57z"/>
<path d="M14399 13950 c-41 -11 -72 -30 -111 -68 l-38 -36 0 37 0 38 -42 -5
c-80 -10 -128 -18 -156 -25 -28 -8 -29 -11 -17 -81 3 -19 8 -51 11 -70 2 -19
7 -46 10 -60 3 -14 8 -41 10 -60 2 -19 6 -46 9 -60 3 -14 8 -38 10 -55 3 -16
8 -46 11 -65 4 -19 8 -42 9 -50 4 -24 15 -94 19 -115 2 -11 7 -39 11 -63 7
-41 9 -43 34 -37 14 4 42 9 61 11 67 7 101 15 96 22 -2 4 -7 39 -10 77 -8 82
-16 150 -21 184 -2 13 -7 65 -10 115 -6 80 -4 95 14 123 46 74 127 87 207 35
l48 -31 53 76 c59 85 59 86 -10 126 -63 37 -143 51 -198 37z"/>
<path d="M14739 13939 c0 -2 -3 -148 -5 -324 -2 -176 -6 -337 -8 -357 -3 -24
0 -38 7 -39 7 -1 23 -3 37 -4 52 -6 130 -8 134 -4 2 2 7 47 10 99 26 385 28
395 101 432 56 28 109 13 170 -50 l31 -32 67 68 67 68 -41 41 c-94 96 -225
115 -316 47 -39 -30 -43 -30 -38 -1 8 40 -6 47 -113 53 -56 4 -102 5 -103 3z"/>
<path d="M12452 13904 c-419 -121 -726 -576 -647 -957 33 -161 155 -310 310
-381 123 -56 210 -74 351 -74 376 0 664 213 754 557 16 61 16 67 1 76 -9 5
-18 10 -21 11 -3 0 -18 6 -35 13 -16 6 -54 21 -82 32 -29 12 -60 18 -69 15 -9
-4 -14 -9 -12 -12 9 -8 -21 -111 -49 -171 -74 -156 -253 -264 -438 -264 -353
1 -538 317 -365 626 52 93 117 160 212 218 114 68 242 90 361 60 32 -8 60 -13
61 -11 1 1 23 58 48 126 l46 123 -24 10 c-49 18 -82 22 -199 25 -102 2 -133
-2 -203 -22z"/>
<path d="M15435 13838 c-2 -7 -6 -26 -9 -43 -3 -16 -16 -88 -31 -160 -27 -140
-32 -164 -40 -210 -3 -16 -8 -37 -10 -45 -2 -8 -7 -31 -10 -50 -3 -19 -12 -66
-20 -105 -8 -38 -15 -73 -15 -76 0 -7 169 -53 175 -47 2 2 6 15 9 28 3 14 16
68 30 120 98 380 138 542 133 546 -5 6 -184 53 -200 54 -4 0 -10 -6 -12 -12z"/>
<path d="M13521 13775 c-82 -19 -209 -88 -271 -147 -59 -56 -106 -116 -97
-124 3 -3 40 -14 82 -25 l77 -20 39 44 c63 72 181 120 256 105 40 -9 93 -49
93 -72 0 -7 -33 -23 -72 -35 -207 -66 -343 -186 -352 -310 -3 -45 22 -112 57
-150 35 -38 104 -63 167 -60 87 3 213 57 280 119 19 18 30 23 30 14 0 -19 11
-18 108 7 l83 22 -5 31 c-3 17 -12 63 -21 101 -13 60 -31 148 -50 244 -33 172
-126 260 -279 266 -39 1 -95 -3 -125 -10z m225 -412 c3 -16 10 -43 16 -61 9
-31 8 -36 -23 -62 -62 -53 -141 -85 -201 -81 -27 2 -58 38 -58 66 0 55 52 100
164 141 81 30 94 30 102 -3z"/>
<path d="M15960 13625 c-263 -55 -352 -357 -174 -594 62 -83 173 -154 279
-177 35 -8 185 -12 189 -5 2 3 -7 40 -20 81 l-23 75 -65 2 c-46 1 -81 8 -118
26 -90 42 -133 96 -145 182 l-6 45 104 -48 c114 -53 264 -129 376 -192 l72
-40 24 33 c40 55 59 106 62 175 13 265 -278 495 -555 437z m227 -184 c95 -50
145 -133 134 -221 0 -6 -58 18 -128 53 -71 35 -158 77 -196 93 l-67 28 23 24
c52 52 160 62 234 23z"/>
<path d="M16836 13494 c-25 -41 -46 -78 -46 -82 0 -4 18 -18 40 -32 22 -14 40
-28 40 -31 0 -3 -12 -19 -26 -34 -23 -25 -30 -27 -75 -22 -63 8 -61 -6 4 -47
81 -50 162 -32 219 49 74 105 88 127 88 133 0 7 -80 66 -156 114 l-42 27 -46
-75z"/>
<path d="M16923 13010 c-92 -41 -122 -155 -70 -270 13 -30 47 -93 76 -139 53
-88 62 -128 35 -155 -19 -19 -17 -19 -61 -1 -62 26 -107 88 -119 165 l-7 41
-71 -6 c-39 -4 -74 -9 -78 -11 -14 -9 4 -89 33 -151 70 -149 252 -246 379
-203 27 9 59 25 71 36 74 67 71 184 -9 322 -91 157 -99 182 -61 202 64 35 176
-70 193 -178 2 -19 6 -36 8 -38 2 -1 35 -6 73 -9 38 -4 74 -9 79 -12 5 -4 7
18 4 54 -21 223 -301 431 -475 353z"/>
<path d="M17810 12131 c-471 -324 -500 -344 -500 -353 0 -4 26 -47 58 -96 32
-48 62 -94 65 -102 4 -8 16 -28 27 -45 10 -16 51 -88 89 -160 38 -71 73 -136
78 -143 6 -10 25 -6 85 19 51 20 75 35 71 43 -4 6 -8 13 -8 16 -1 10 -104 209
-129 248 -14 23 -26 44 -26 46 0 3 -14 28 -32 55 -17 28 -29 53 -27 55 2 2 53
34 114 70 l109 65 31 -50 c54 -91 76 -132 149 -270 l71 -136 72 33 72 32 -56
109 c-53 102 -159 292 -190 340 -14 21 -12 24 39 56 29 18 74 45 100 60 l47
27 37 -63 c20 -34 44 -70 52 -79 8 -10 12 -18 8 -18 -3 0 1 -12 11 -26 27 -42
49 -82 109 -204 32 -63 58 -116 59 -117 3 -5 129 48 139 57 19 18 -182 385
-347 635 -33 50 -63 93 -66 97 -4 5 -144 -86 -311 -201z"/>
<path d="M18223 11323 c-148 -143 -214 -203 -349 -315 l-121 -101 25 -81 c14
-44 26 -82 26 -83 2 -2 102 -19 241 -39 45 -6 97 -16 235 -44 80 -17 156 -33
170 -36 14 -2 39 -9 55 -13 77 -23 76 -23 69 17 -3 21 -14 70 -24 110 -10 39
-15 72 -11 72 22 1 -34 20 -75 25 -27 3 -74 10 -104 15 -30 5 -82 12 -115 15
-33 4 -73 8 -90 10 -16 2 -51 5 -77 6 -27 2 -48 6 -48 10 0 4 15 18 33 30 97
69 340 265 345 281 3 7 -76 218 -82 218 -1 0 -48 -44 -103 -97z"/>
<path d="M18170 10463 c-210 -73 -318 -303 -256 -548 13 -54 54 -146 74 -167
4 -4 33 17 66 47 l58 54 -21 43 c-53 110 -51 218 6 298 29 41 80 77 91 65 4
-4 7 -146 7 -315 l0 -309 62 -7 c186 -19 349 114 391 321 8 38 7 147 -1 202
-16 113 -117 250 -222 302 -62 31 -186 37 -255 14z m276 -260 c38 -57 51 -98
49 -158 -2 -73 -29 -131 -82 -174 -53 -44 -63 -41 -63 22 0 96 -10 330 -15
359 l-5 29 48 -25 c27 -14 57 -37 68 -53z"/>
<path d="M17886 9528 c-2 -13 -11 -54 -19 -91 -17 -77 -17 -76 68 -91 53 -9
312 -58 385 -73 19 -4 40 -7 45 -8 16 0 35 -95 29 -144 -6 -53 -35 -120 -61
-143 -25 -23 -89 -49 -105 -43 -7 2 -24 6 -38 9 -14 2 -54 14 -89 25 -35 12
-74 23 -85 25 -12 3 -66 18 -121 35 -55 17 -105 31 -111 31 -14 0 -77 -172
-66 -180 6 -6 89 -36 347 -128 166 -59 269 -46 359 47 37 39 88 133 105 195
11 41 9 189 -4 219 -6 13 -2 17 17 17 21 0 25 7 36 58 6 31 14 75 17 97 3 22
8 46 10 53 2 6 1 12 -3 13 -4 0 -16 2 -27 4 -11 2 -42 7 -70 10 -27 3 -57 7
-65 10 -8 2 -37 6 -65 9 -42 4 -197 25 -310 41 -16 2 -59 7 -95 11 -36 3 -68
8 -72 11 -4 2 -9 -6 -12 -19z"/>
<path d="M17622 8625 c-47 -27 -69 -48 -102 -100 -41 -63 -51 -84 -66 -134
-16 -54 -16 -54 69 -105 55 -33 57 -34 57 -13 0 34 45 122 71 141 13 9 34 16
47 16 18 0 312 -139 331 -156 2 -2 -24 -49 -58 -105 -33 -56 -61 -105 -61
-108 0 -3 31 -23 68 -44 77 -44 62 -53 148 90 l55 93 87 -45 c47 -25 90 -45
94 -45 4 0 16 16 26 36 l19 37 -37 38 c-70 74 -101 161 -101 280 l1 67 -38 15
-37 15 -22 -48 c-12 -26 -26 -51 -31 -54 -6 -3 -56 15 -113 39 -110 48 -124
54 -179 78 -86 37 -176 42 -228 12z"/>
<path d="M17430 8198 c-237 -60 -475 -420 -380 -576 46 -75 123 -89 240 -44
76 29 90 38 190 112 119 88 171 113 185 90 24 -39 6 -93 -55 -163 -45 -51
-101 -85 -165 -102 l-40 -11 -18 -93 c-10 -51 -16 -95 -14 -98 3 -2 25 1 48 7
24 7 44 11 44 10 0 -1 27 12 60 30 116 62 209 151 276 262 139 230 78 421
-124 385 -56 -10 -122 -47 -228 -127 -113 -86 -163 -114 -194 -106 -33 8 -38
33 -15 80 39 78 116 144 194 166 l45 12 -5 86 c-2 47 -5 86 -7 87 -1 1 -18 -2
-37 -7z"/>
</g>
</svg>
